<svg xmlns="http://www.w3.org/2000/svg" width="80" height="95.1" viewBox="0 0 80 95.113"><path fill="none" stroke="#231F20" stroke-width="3.9" stroke-miterlimit="10" d="M0 38c6.7 0 6.7 7.8 13.3 7.8C20 45.8 20 38 26.7 38c6.6 0 6.6 7.8 13.3 7.8 6.7 0 6.7-7.8 13.3-7.8 6.7 0 6.7 7.8 13.4 7.8S73.3 38 80 38M0 61.7c6.7 0 6.7 7.8 13.3 7.8 6.7 0 6.7-7.8 13.4-7.8 6.6 0 6.6 7.8 13.3 7.8 6.7 0 6.7-7.8 13.3-7.8 6.7 0 6.7 7.8 13.4 7.8s6.6-7.8 13.3-7.8M0 85.4c6.7 0 6.7 7.8 13.3 7.8 6.7 0 6.7-7.8 13.4-7.8 6.6 0 6.6 7.8 13.3 7.8 6.7 0 6.7-7.8 13.3-7.8 6.7 0 6.7 7.8 13.4 7.8s6.6-7.8 13.3-7.8m0-48.8c-6.7 0-6.7-7.8-13.3-7.8-6.7 0-6.7 7.8-13.4 7.8-6.6 0-6.6-7.8-13.3-7.8-6.7 0-6.7 7.8-13.3 7.8-6.7 0-6.7-7.8-13.4-7.8S6.7 36.6 0 36.6m80 24c-6.7 0-6.7-7.8-13.3-7.8-6.7 0-6.7 7.8-13.4 7.8-6.6 0-6.6-7.8-13.3-7.8-6.7 0-6.7 7.8-13.3 7.8-6.7 0-6.7-7.8-13.4-7.8S6.7 60.6 0 60.6m80 24c-6.7 0-6.7-7.8-13.3-7.8-6.7 0-6.7 7.8-13.4 7.8-6.6 0-6.6-7.8-13.3-7.8-6.7 0-6.7 7.8-13.3 7.8-6.7 0-6.7-7.8-13.4-7.8S6.7 84.6 0 84.6"/><text transform="translate(19.98 20.596)" font-family="'ArialMT'" font-size="24">100</text></svg>